<svg width="960" height="640" viewBox="0 0 960 640" fill="none" xmlns="http://www.w3.org/2000/svg">
  <defs>
    <linearGradient id="panel" x1="0" y1="0" x2="1" y2="1">
      <stop stop-color="#f8f9ff" offset="0%"/>
      <stop stop-color="#eef2ff" offset="100%"/>
    </linearGradient>
  </defs>
  <rect width="960" height="640" rx="32" fill="#0b132b" opacity="0.75"/>
  <rect x="110" y="80" width="740" height="460" rx="32" fill="url(#panel)" stroke="#dbe2ff" stroke-width="3"/>
  <rect x="150" y="130" width="220" height="120" rx="18" fill="#0d6efd" opacity="0.12"/>
  <rect x="390" y="130" width="170" height="120" rx="18" fill="#20c997" opacity="0.12"/>
  <rect x="580" y="130" width="170" height="120" rx="18" fill="#d63384" opacity="0.12"/>
  <rect x="150" y="280" width="600" height="38" rx="12" fill="#0d6efd" opacity="0.12"/>
  <rect x="150" y="330" width="540" height="38" rx="12" fill="#0d6efd" opacity="0.08"/>
  <rect x="150" y="380" width="480" height="38" rx="12" fill="#0d6efd" opacity="0.08"/>
  <rect x="150" y="450" width="240" height="48" rx="18" fill="#0d6efd" opacity="0.18"/>
  <rect x="420" y="450" width="190" height="48" rx="18" fill="#6610f2" opacity="0.18"/>
  <rect x="640" y="450" width="110" height="48" rx="18" fill="#0dcaf0" opacity="0.18"/>
  <circle cx="730" cy="260" r="62" fill="#0d6efd" opacity="0.12"/>
  <path d="M730 212C756 212 776 232 776 258C776 284 756 304 730 304C704 304 684 284 684 258C684 232 704 212 730 212Z" fill="#0d6efd" opacity="0.35"/>
  <path d="M718 246L730 280L744 234" stroke="#fff" stroke-width="10" stroke-linecap="round" stroke-linejoin="round"/>
  <text x="172" y="205" fill="#0b132b" font-family="'Inter', 'Segoe UI', sans-serif" font-size="18" font-weight="700">Panel de salud de riesgos</text>
  <text x="172" y="235" fill="#6c757d" font-family="'Inter', 'Segoe UI', sans-serif" font-size="14">Coberturas, límites y acciones priorizadas</text>
</svg>